<?xml version="1.0" encoding="UTF-8" standalone="no"?>
<svg width="277px" height="305px" viewBox="0 0 277 305" version="1.1" xmlns="http://www.w3.org/2000/svg" xmlns:xlink="http://www.w3.org/1999/xlink">
    <!-- Generator: Sketch 3.7.2 (28276) - http://www.bohemiancoding.com/sketch -->
    <title>Tote Logo</title>
    <desc>Created with Sketch.</desc>
    <defs></defs>
    <g id="UI" stroke="none" stroke-width="1" fill="none" fill-rule="evenodd" opacity="0.945662313">
        <g id="Build-A-Store" transform="translate(-582.000000, -62.000000)">
            <g id="Build-a-store" transform="translate(0.000000, -290.000000)">
                <g id="header">
                    <g id="Tote-Logo" transform="translate(584.000000, 352.000000)">
                        <g id="icons/bag+big">
                            <rect id="Rectangle-12" fill="#EFF5F8" x="57.9285714" y="143.909091" width="52.3809524" height="52.3636364" rx="100"></rect>
                            <rect id="Rectangle-12-Copy" fill="#EFF5F8" x="162.690476" y="143.909091" width="52.3809524" height="52.3636364" rx="100"></rect>
                            <path d="M227.571429,108.999998 C227.571429,49.5676297 187.411909,0.5 136.5,0.5 C85.5880906,0.5 45.4285714,49.5676297 45.4285714,108.999998 L70.4285714,108.999998 C70.4285714,62.3936965 100.624306,25.5 136.5,25.5 C172.375694,25.5 202.571429,62.3936965 202.571429,108.999998 L227.571429,108.999998 L227.571429,108.999998 Z" id="Shape" fill="#EFF5F8"></path>
                            <path d="M15.7672229,106.000036 C14.1056275,105.992003 12.8719032,107.3254 13.0106441,108.966686 L22.2221516,217.937561 C25.5252959,257.013308 59.9908292,288.916963 99.2036991,289.196373 L173.126401,289.723107 C212.338992,290.002515 246.786489,258.552997 250.067497,219.473205 L259.244634,110.165144 C259.383127,108.51556 258.152984,107.171819 256.486814,107.163764 L15.7672229,106.000036 Z" id="Path" stroke="#EFF5F8" stroke-width="30"></path>
                        </g>
                    </g>
                </g>
            </g>
        </g>
    </g>
</svg>